<svg xmlns="http://www.w3.org/2000/svg" width="20" height="14.5">
    <path d="M19.213 48.309a.648.648 0 0 1-.015.18L17.965 53.8a.571.571 0 0 1-.541.458l-7.4.04h-7.4a.57.57 0 0 1-.544-.458L.839 48.508a.648.648 0 0 1-.015-.184A1.264 1.264 0 0 1 0 47.113a1.227 1.227 0 0 1 1.178-1.269 1.227 1.227 0 0 1 1.178 1.269 1.307 1.307 0 0 1-.43.979l1.544 1.677a2.034 2.034 0 0 0 1.486.667 2.058 2.058 0 0 0 1.673-.9l2.538-3.624a1.315 1.315 0 0 1-.345-.9 1.181 1.181 0 1 1 2.355 0 1.316 1.316 0 0 1-.327.875l2.52 3.634a2.057 2.057 0 0 0 1.677.906 2.007 2.007 0 0 0 1.481-.661l1.557-1.666a1.305 1.305 0 0 1-.44-.988 1.181 1.181 0 1 1 2.355 0 1.267 1.267 0 0 1-.787 1.197zM17.844 56.2a.584.584 0 0 0-.561-.6H2.779a.584.584 0 0 0-.561.6v1.45a.584.584 0 0 0 .561.6h14.5a.584.584 0 0 0 .561-.6z" transform="translate(0 -43.75)" style="fill:#fff"/>
</svg>
